<?xml version="1.0" encoding="utf-8"?>
<!-- Generator: Adobe Illustrator 24.3.0, SVG Export Plug-In . SVG Version: 6.00 Build 0)  -->
<svg version="1.1" id="Layer_1" xmlns="http://www.w3.org/2000/svg" xmlns:xlink="http://www.w3.org/1999/xlink" x="0px" y="0px"
	 viewBox="0 0 512 512" style="enable-background:new 0 0 512 512;" xml:space="preserve">
<style type="text/css">
	.st0{fill:#BC1822;}
	.st1{fill:url(#XMLID_6_);}
	.st2{fill:url(#XMLID_11_);}
	.st3{fill:url(#XMLID_12_);}
	.st4{fill:none;stroke:#231F20;stroke-width:0.25;}
	.st5{fill:url(#XMLID_14_);}
	.st6{fill:url(#XMLID_15_);}
	.st7{fill:url(#XMLID_17_);}
	.st8{fill:url(#XMLID_18_);}
	.st9{fill:url(#XMLID_20_);}
	.st10{fill:url(#XMLID_21_);}
	.st11{fill:url(#XMLID_23_);}
	.st12{fill:url(#XMLID_24_);}
	.st13{fill:url(#XMLID_25_);}
	.st14{fill:url(#XMLID_27_);}
	.st15{fill:#FFFFFF;stroke:#000000;stroke-width:0.25;}
	.st16{fill:url(#XMLID_28_);}
	.st17{fill:none;stroke:#E8E8E8;stroke-width:0.25;}
	.st18{fill:url(#XMLID_29_);}
	.st19{fill:url(#XMLID_30_);}
</style>
<g id="XMLID_1_">
	<g id="XMLID_54_">
		<g id="XMLID_213_">
			<g id="XMLID_231_">
				<path id="XMLID_232_" class="st0" d="M89.48,322.27v14.51H17.1c0,0-2.7-0.71-2.7,2.7s0,29.15,0,29.15s-0.43,2.7,2.7,2.7
					c3.13,0,72.24,0,72.24,0v13.23h-74.8c0,0-14.51-1.28-14.51-14.51V337.2c0,0-1.71-14.79,14.79-14.79L89.48,322.27z"/>
			</g>
			<g id="XMLID_229_">
				<path id="XMLID_230_" class="st0" d="M220.88,347.01h65.7v13.51h-68.4v7.96c0,0-0.43,2.7,2.84,2.7c3.13,0,74.52,0,74.52,0v13.23
					h-77.22c0,0-14.93-1.28-14.93-14.51v-32.85c0,0-1.71-14.79,15.22-14.79l77.08-0.14v13.08c0,0-68.83,0-74.66,0
					c0,0-2.84,0.28-2.84,2.84c0,2.56,0,2.56,0,2.56v6.11L220.88,347.01z"/>
			</g>
			<g id="XMLID_227_">
				<path id="XMLID_228_" class="st0" d="M218.18,336.63"/>
			</g>
			<g id="XMLID_222_">
				<polygon id="XMLID_226_" class="st0" points="100.57,321.84 114.94,321.84 114.94,347.3 176.23,347.3 176.23,321.98 
					191.3,321.98 191.3,385.27 176.66,385.27 176.66,360.81 114.94,360.81 114.94,384.84 100.43,384.84 				"/>
			</g>
			<g id="XMLID_216_">
				<g id="XMLID_217_">
					<path id="XMLID_218_" class="st0" d="M307.06,321.98h78.93h2.99c0,0,10.1,3.7,10.1,10.1c0,6.26,0,14.79,0,14.79
						s0.85,10.52-10.52,10.52c-11.38,0-12.51,0-12.51,0l26.17,27.73h-18.91l-24.18-27.87h-36.83v27.73H307.2L307.06,321.98z
						 M321.85,346.59h61.29c0,0,3.13-0.43,3.13-3.13c0-2.7,0-4.27,0-4.27s0.71-2.99-2.99-2.99h-61.58L321.85,346.59z"/>
				</g>
			</g>
			<g id="XMLID_214_">
				<polygon id="XMLID_215_" class="st0" points="402.34,321.84 424.52,321.84 458.09,351.28 491.65,321.84 511.98,321.84 
					466.48,363.51 466.48,384.84 449.7,384.84 449.7,363.23 				"/>
			</g>
		</g>
	</g>
	<g id="XMLID_2_">
		
			<linearGradient id="XMLID_6_" gradientUnits="userSpaceOnUse" x1="179.0266" y1="307.3339" x2="145.0472" y2="328.6698" gradientTransform="matrix(1 0 0 -1 0 514)">
			<stop  offset="0" style="stop-color:#E8E8E8"/>
			<stop  offset="1" style="stop-color:#495153"/>
		</linearGradient>
		<polygon id="XMLID_51_" class="st1" points="245.63,137.26 141.25,261.12 106.55,272.64 229.27,126.73 		"/>
		
			<linearGradient id="XMLID_11_" gradientUnits="userSpaceOnUse" x1="320.2608" y1="382.9271" x2="311.5687" y2="256.8896" gradientTransform="matrix(1 0 0 -1 0 514)">
			<stop  offset="0.033" style="stop-color:#E8E8E8"/>
			<stop  offset="0.098" style="stop-color:#D6D7D7"/>
			<stop  offset="0.3003" style="stop-color:#A4A8A8"/>
			<stop  offset="0.4911" style="stop-color:#7D8283"/>
			<stop  offset="0.6651" style="stop-color:#606769"/>
			<stop  offset="0.8165" style="stop-color:#4F5759"/>
			<stop  offset="0.9286" style="stop-color:#495153"/>
		</linearGradient>
		<polygon id="XMLID_50_" class="st2" points="245.63,137.26 349.86,261.12 384.71,272.64 261.98,126.73 		"/>
		
			<linearGradient id="XMLID_12_" gradientUnits="userSpaceOnUse" x1="245.6262" y1="375.6549" x2="245.6262" y2="392.7751" gradientTransform="matrix(1 0 0 -1 0 514)">
			<stop  offset="0" style="stop-color:#E8E8E8"/>
			<stop  offset="0.1238" style="stop-color:#C9CACB"/>
			<stop  offset="0.327" style="stop-color:#9B9FA0"/>
			<stop  offset="0.5222" style="stop-color:#787D7F"/>
			<stop  offset="0.7045" style="stop-color:#5E6567"/>
			<stop  offset="0.8689" style="stop-color:#4E5658"/>
			<stop  offset="1" style="stop-color:#495153"/>
		</linearGradient>
		<polygon id="XMLID_47_" class="st3" points="245.63,137.26 261.98,126.73 229.27,126.73 		"/>
		<path id="XMLID_46_" class="st4" d="M169.69,151.9"/>
		<path id="XMLID_45_" class="st4" d="M169.83,151.9"/>
		
			<linearGradient id="XMLID_14_" gradientUnits="userSpaceOnUse" x1="190.5701" y1="379.7267" x2="172.0004" y2="371.4297" gradientTransform="matrix(1 0 0 -1 0 514)">
			<stop  offset="0" style="stop-color:#FFFFFF"/>
			<stop  offset="1" style="stop-color:#495153"/>
		</linearGradient>
		<polygon id="XMLID_42_" class="st5" points="169.69,151.9 186.33,127.87 169.69,140.95 		"/>
		
			<linearGradient id="XMLID_15_" gradientUnits="userSpaceOnUse" x1="131.7493" y1="302.5462" x2="48.384" y2="441.6203" gradientTransform="matrix(1 0 0 -1 0 514)">
			<stop  offset="0" style="stop-color:#495153"/>
			<stop  offset="0.3571" style="stop-color:#E8E8E8"/>
			<stop  offset="0.4243" style="stop-color:#DDDDDE"/>
			<stop  offset="0.5428" style="stop-color:#BFC1C2"/>
			<stop  offset="0.6986" style="stop-color:#8F9495"/>
			<stop  offset="0.884" style="stop-color:#4D5557"/>
			<stop  offset="0.8956" style="stop-color:#495153"/>
		</linearGradient>
		<path id="XMLID_39_" class="st6" d="M153.48,237.37l-24.74,8.96C10.41,228.41,18.52,190.3,18.52,190.3
			c-0.28-49.2,167.81-62.43,167.81-62.43l-16.64,13.23c0,0-137.09,19.77-133.11,49.06C40.56,219.31,153.48,237.37,153.48,237.37z"/>
		
			<linearGradient id="XMLID_17_" gradientUnits="userSpaceOnUse" x1="124.4078" y1="297.4652" x2="90.9579" y2="375.6932" gradientTransform="matrix(1 0 0 -1 0 514)">
			<stop  offset="0" style="stop-color:#E8E8E8"/>
			<stop  offset="0.1238" style="stop-color:#C9CACB"/>
			<stop  offset="0.327" style="stop-color:#9B9FA0"/>
			<stop  offset="0.5222" style="stop-color:#787D7F"/>
			<stop  offset="0.7045" style="stop-color:#5E6567"/>
			<stop  offset="0.8689" style="stop-color:#4E5658"/>
			<stop  offset="1" style="stop-color:#495153"/>
		</linearGradient>
		<path id="XMLID_36_" class="st7" d="M169.83,140.95v10.95c0,0-114.9,8.53-114.9,37.54s91.16,36.41,91.16,36.41l7.39,11.52
			c0,0-116.9-14.22-116.9-47.36C36.44,156.74,169.83,140.95,169.83,140.95z"/>
		
			<linearGradient id="XMLID_18_" gradientUnits="userSpaceOnUse" x1="107.1322" y1="247.2899" x2="159.5469" y2="246.762" gradientTransform="matrix(1 0 0 -1 0 514)">
			<stop  offset="0" style="stop-color:#E8E8E8"/>
			<stop  offset="0.1238" style="stop-color:#C9CACB"/>
			<stop  offset="0.327" style="stop-color:#9B9FA0"/>
			<stop  offset="0.5222" style="stop-color:#787D7F"/>
			<stop  offset="0.7045" style="stop-color:#5E6567"/>
			<stop  offset="0.8689" style="stop-color:#4E5658"/>
			<stop  offset="1" style="stop-color:#495153"/>
		</linearGradient>
		<polygon id="XMLID_33_" class="st8" points="106.55,272.64 153.19,272.64 141.25,261.12 		"/>
		
			<linearGradient id="XMLID_20_" gradientUnits="userSpaceOnUse" x1="254.9888" y1="371.1514" x2="131.4524" y2="233.1269" gradientTransform="matrix(1 0 0 -1 0 514)">
			<stop  offset="0" style="stop-color:#495153"/>
			<stop  offset="8.479545e-04" style="stop-color:#4A5254"/>
			<stop  offset="0.0472" style="stop-color:#73787A"/>
			<stop  offset="0.0944" style="stop-color:#959899"/>
			<stop  offset="0.1425" style="stop-color:#AFB1B2"/>
			<stop  offset="0.1916" style="stop-color:#C2C3C3"/>
			<stop  offset="0.2422" style="stop-color:#CDCECE"/>
			<stop  offset="0.2967" style="stop-color:#D1D1D1"/>
			<stop  offset="0.6344" style="stop-color:#888D8E"/>
			<stop  offset="0.878" style="stop-color:#5B6263"/>
			<stop  offset="1" style="stop-color:#495153"/>
		</linearGradient>
		<polygon id="XMLID_26_" class="st9" points="245.63,137.26 245.63,160.01 153.19,272.64 141.25,261.12 		"/>
		
			<linearGradient id="XMLID_21_" gradientUnits="userSpaceOnUse" x1="-176.3075" y1="371.1817" x2="-299.8441" y2="233.1572" gradientTransform="matrix(-1 0 0 -1 60 514)">
			<stop  offset="0" style="stop-color:#000000"/>
			<stop  offset="0.0214" style="stop-color:#202020"/>
			<stop  offset="0.0581" style="stop-color:#515151"/>
			<stop  offset="0.0959" style="stop-color:#7A7A7A"/>
			<stop  offset="0.134" style="stop-color:#9D9D9D"/>
			<stop  offset="0.1728" style="stop-color:#B7B7B7"/>
			<stop  offset="0.2122" style="stop-color:#CACACA"/>
			<stop  offset="0.2529" style="stop-color:#D5D5D5"/>
			<stop  offset="0.2967" style="stop-color:#D9D9D9"/>
			<stop  offset="0.3282" style="stop-color:#D2D2D2"/>
			<stop  offset="0.6518" style="stop-color:#888D8E"/>
			<stop  offset="0.8838" style="stop-color:#5B6263"/>
			<stop  offset="1" style="stop-color:#495153"/>
		</linearGradient>
		<polygon id="XMLID_22_" class="st10" points="245.63,137.26 245.63,160.01 338.2,272.64 350.01,261.12 		"/>
		
			<linearGradient id="XMLID_23_" gradientUnits="userSpaceOnUse" x1="-324.1372" y1="247.2901" x2="-271.7184" y2="246.7621" gradientTransform="matrix(-1 0 0 -1 60 514)">
			<stop  offset="0" style="stop-color:#E8E8E8"/>
			<stop  offset="8.516701e-03" style="stop-color:#E3E3E3"/>
			<stop  offset="0.0866" style="stop-color:#BABDBD"/>
			<stop  offset="0.1694" style="stop-color:#979B9C"/>
			<stop  offset="0.2565" style="stop-color:#7B8082"/>
			<stop  offset="0.3494" style="stop-color:#656B6D"/>
			<stop  offset="0.4507" style="stop-color:#555C5E"/>
			<stop  offset="0.5668" style="stop-color:#4C5456"/>
			<stop  offset="0.7308" style="stop-color:#495153"/>
		</linearGradient>
		<polygon id="XMLID_19_" class="st11" points="384.71,272.64 338.06,272.64 350.01,261.12 		"/>
		
			<linearGradient id="XMLID_24_" gradientUnits="userSpaceOnUse" x1="-213.3668" y1="379.7619" x2="-231.9364" y2="371.4649" gradientTransform="matrix(-1 0 0 -1 87.3789 514)">
			<stop  offset="0" style="stop-color:#FFFFFF"/>
			<stop  offset="1" style="stop-color:#495153"/>
		</linearGradient>
		<polygon id="XMLID_16_" class="st12" points="321.71,151.9 305.07,127.87 321.57,140.95 		"/>
		
			<linearGradient id="XMLID_25_" gradientUnits="userSpaceOnUse" x1="-272.0994" y1="302.5895" x2="-355.4649" y2="441.6636" gradientTransform="matrix(-1 0 0 -1 87.3789 514)">
			<stop  offset="0" style="stop-color:#495153"/>
			<stop  offset="0.3571" style="stop-color:#E8E8E8"/>
			<stop  offset="0.4243" style="stop-color:#DDDDDE"/>
			<stop  offset="0.5428" style="stop-color:#BFC1C2"/>
			<stop  offset="0.6986" style="stop-color:#8F9495"/>
			<stop  offset="0.884" style="stop-color:#4D5557"/>
			<stop  offset="0.8956" style="stop-color:#495153"/>
		</linearGradient>
		<path id="XMLID_13_" class="st13" d="M337.92,237.37l24.74,8.96c118.32-17.92,110.07-56.17,110.07-56.17
			c0.28-49.2-167.81-62.43-167.81-62.43l16.64,13.23c0,0,137.09,19.77,133.11,49.06C450.69,219.31,337.92,237.37,337.92,237.37z"/>
		
			<linearGradient id="XMLID_27_" gradientUnits="userSpaceOnUse" x1="-279.5933" y1="297.4313" x2="-313.0438" y2="375.6602" gradientTransform="matrix(-1 0 0 -1 87.3789 514)">
			<stop  offset="0" style="stop-color:#E8E8E8"/>
			<stop  offset="0.0982" style="stop-color:#C1C3C3"/>
			<stop  offset="0.2229" style="stop-color:#969A9B"/>
			<stop  offset="0.344" style="stop-color:#757A7C"/>
			<stop  offset="0.4588" style="stop-color:#5D6465"/>
			<stop  offset="0.5649" style="stop-color:#4E5658"/>
			<stop  offset="0.6538" style="stop-color:#495153"/>
		</linearGradient>
		<path id="XMLID_10_" class="st14" d="M321.57,140.95v10.95c0,0,114.9,8.53,114.9,37.54s-91.16,36.41-91.16,36.41l-7.39,11.52
			c0,0,116.9-14.22,116.9-47.36C454.81,156.74,321.57,140.95,321.57,140.95z"/>
		<path id="XMLID_9_" class="st15" d="M281.18,229.55"/>
		
			<linearGradient id="XMLID_28_" gradientUnits="userSpaceOnUse" x1="294.8241" y1="273.8449" x2="287.7077" y2="269.8914" gradientTransform="matrix(1 0 0 -1 0 514)">
			<stop  offset="0" style="stop-color:#E8E8E8"/>
			<stop  offset="0.0674" style="stop-color:#D6D7D7"/>
			<stop  offset="0.2772" style="stop-color:#A4A8A8"/>
			<stop  offset="0.475" style="stop-color:#7D8283"/>
			<stop  offset="0.6554" style="stop-color:#606769"/>
			<stop  offset="0.8124" style="stop-color:#4F5759"/>
			<stop  offset="0.9286" style="stop-color:#495153"/>
		</linearGradient>
		<polygon id="XMLID_8_" class="st16" points="282.46,231.68 298.53,253.44 284.88,241.92 		"/>
		<path id="XMLID_7_" class="st17" d="M166.56,239.08"/>
		
			<linearGradient id="XMLID_29_" gradientUnits="userSpaceOnUse" x1="225.6115" y1="274.61" x2="223.2406" y2="299.5056" gradientTransform="matrix(1 0 0 -1 0 514)">
			<stop  offset="0" style="stop-color:#E8E8E8"/>
			<stop  offset="0.1238" style="stop-color:#C9CACB"/>
			<stop  offset="0.327" style="stop-color:#9B9FA0"/>
			<stop  offset="0.5222" style="stop-color:#787D7F"/>
			<stop  offset="0.7045" style="stop-color:#5E6567"/>
			<stop  offset="0.8689" style="stop-color:#4E5658"/>
			<stop  offset="1" style="stop-color:#495153"/>
		</linearGradient>
		<path id="XMLID_4_" class="st18" d="M166.56,239.08l21.05-8.53c0,0,79.07,3.27,94.85,1.14l2.42,10.24
			C284.88,241.92,251.88,248.18,166.56,239.08z"/>
		
			<linearGradient id="XMLID_30_" gradientUnits="userSpaceOnUse" x1="231.1406" y1="299.6954" x2="232.3257" y2="271.2501" gradientTransform="matrix(1 0 0 -1 0 514)">
			<stop  offset="0" style="stop-color:#E8E8E8"/>
			<stop  offset="0.0674" style="stop-color:#D6D7D7"/>
			<stop  offset="0.2772" style="stop-color:#A4A8A8"/>
			<stop  offset="0.475" style="stop-color:#7D8283"/>
			<stop  offset="0.6554" style="stop-color:#606769"/>
			<stop  offset="0.8124" style="stop-color:#4F5759"/>
			<stop  offset="0.9286" style="stop-color:#495153"/>
		</linearGradient>
		<path id="XMLID_3_" class="st19" d="M284.88,241.92l13.51,11.52c0,0-74.37,4.98-128.13-1.85l-3.7-12.51
			C166.56,239.08,239.65,245.76,284.88,241.92z"/>
	</g>
</g>
</svg>
